<svg width="72" height="12" viewBox="0 0 72 12" fill="none" xmlns="http://www.w3.org/2000/svg">
<g clip-path="url(#clip0_192_393)">
<path d="M6.41994 0.93428L7.7828 3.68571C7.8138 3.75554 7.86255 3.81604 7.92422 3.86115C7.98588 3.90627 8.05829 3.93444 8.13423 3.94285L11.1428 4.38857C11.2299 4.39976 11.312 4.43551 11.3796 4.49164C11.4471 4.54777 11.4973 4.62196 11.5243 4.70555C11.5513 4.78913 11.5539 4.87867 11.5319 4.96369C11.5098 5.04872 11.4641 5.12572 11.3999 5.18571L9.23137 7.33714C9.17602 7.38885 9.13449 7.45357 9.11053 7.52543C9.08658 7.59729 9.08098 7.67399 9.09423 7.74857L9.61708 10.7743C9.63222 10.8612 9.62265 10.9507 9.58947 11.0324C9.55628 11.1142 9.5008 11.185 9.42936 11.2368C9.35791 11.2886 9.27336 11.3193 9.18532 11.3254C9.09728 11.3316 9.00929 11.3128 8.93137 11.2714L6.2228 9.83999C6.15344 9.80595 6.07721 9.78824 5.99994 9.78824C5.92268 9.78824 5.84644 9.80595 5.77708 9.83999L3.06851 11.2714C2.99059 11.3128 2.9026 11.3316 2.81456 11.3254C2.72653 11.3193 2.64197 11.2886 2.57053 11.2368C2.49908 11.185 2.4436 11.1142 2.41042 11.0324C2.37723 10.9507 2.36766 10.8612 2.3828 10.7743L2.90566 7.71428C2.91891 7.6397 2.9133 7.563 2.88935 7.49114C2.8654 7.41929 2.82386 7.35456 2.76851 7.30285L0.574227 5.18571C0.509309 5.12408 0.463655 5.04494 0.442796 4.95789C0.421937 4.87084 0.426767 4.77961 0.456702 4.69525C0.486636 4.61089 0.54039 4.53702 0.611453 4.48259C0.682516 4.42815 0.767838 4.39549 0.857084 4.38857L3.86566 3.94285C3.9416 3.93444 4.01401 3.90627 4.07567 3.86115C4.13733 3.81604 4.18609 3.75554 4.21708 3.68571L5.57994 0.93428C5.61706 0.854144 5.67632 0.786299 5.75074 0.738752C5.82516 0.691204 5.91163 0.665939 5.99994 0.665939C6.08825 0.665939 6.17472 0.691204 6.24914 0.738752C6.32356 0.786299 6.38283 0.854144 6.41994 0.93428Z" fill="#FFDC25" stroke="#FFDC25" stroke-width="0.857143" stroke-linecap="round" stroke-linejoin="round"/>
</g>
<g clip-path="url(#clip1_192_393)">
<path d="M21.4199 0.93428L22.7828 3.68571C22.8138 3.75554 22.8626 3.81604 22.9242 3.86115C22.9859 3.90627 23.0583 3.93444 23.1342 3.94285L26.1428 4.38857C26.2299 4.39976 26.312 4.43551 26.3796 4.49164C26.4471 4.54777 26.4973 4.62196 26.5243 4.70555C26.5513 4.78913 26.5539 4.87867 26.5319 4.96369C26.5098 5.04872 26.4641 5.12572 26.3999 5.18571L24.2314 7.33714C24.176 7.38885 24.1345 7.45357 24.1105 7.52543C24.0866 7.59729 24.081 7.67399 24.0942 7.74857L24.6171 10.7743C24.6322 10.8612 24.6227 10.9507 24.5895 11.0324C24.5563 11.1142 24.5008 11.185 24.4294 11.2368C24.3579 11.2886 24.2734 11.3193 24.1853 11.3254C24.0973 11.3316 24.0093 11.3128 23.9314 11.2714L21.2228 9.83999C21.1534 9.80595 21.0772 9.78824 20.9999 9.78824C20.9227 9.78824 20.8464 9.80595 20.7771 9.83999L18.0685 11.2714C17.9906 11.3128 17.9026 11.3316 17.8146 11.3254C17.7265 11.3193 17.642 11.2886 17.5705 11.2368C17.4991 11.185 17.4436 11.1142 17.4104 11.0324C17.3772 10.9507 17.3677 10.8612 17.3828 10.7743L17.9057 7.71428C17.9189 7.6397 17.9133 7.563 17.8893 7.49114C17.8654 7.41929 17.8239 7.35456 17.7685 7.30285L15.5742 5.18571C15.5093 5.12408 15.4637 5.04494 15.4428 4.95789C15.4219 4.87084 15.4268 4.77961 15.4567 4.69525C15.4866 4.61089 15.5404 4.53702 15.6115 4.48259C15.6825 4.42815 15.7678 4.39549 15.8571 4.38857L18.8657 3.94285C18.9416 3.93444 19.014 3.90627 19.0757 3.86115C19.1373 3.81604 19.1861 3.75554 19.2171 3.68571L20.5799 0.93428C20.6171 0.854144 20.6763 0.786299 20.7507 0.738752C20.8252 0.691204 20.9116 0.665939 20.9999 0.665939C21.0883 0.665939 21.1747 0.691204 21.2491 0.738752C21.3236 0.786299 21.3828 0.854144 21.4199 0.93428Z" fill="#FFDC25" stroke="#FFDC25" stroke-width="0.857143" stroke-linecap="round" stroke-linejoin="round"/>
</g>
<g clip-path="url(#clip2_192_393)">
<path d="M36.4199 0.93428L37.7828 3.68571C37.8138 3.75554 37.8626 3.81604 37.9242 3.86115C37.9859 3.90627 38.0583 3.93444 38.1342 3.94285L41.1428 4.38857C41.2299 4.39976 41.312 4.43551 41.3796 4.49164C41.4471 4.54777 41.4973 4.62196 41.5243 4.70555C41.5513 4.78913 41.5539 4.87867 41.5319 4.96369C41.5098 5.04872 41.4641 5.12572 41.3999 5.18571L39.2314 7.33714C39.176 7.38885 39.1345 7.45357 39.1105 7.52543C39.0866 7.59729 39.081 7.67399 39.0942 7.74857L39.6171 10.7743C39.6322 10.8612 39.6227 10.9507 39.5895 11.0324C39.5563 11.1142 39.5008 11.185 39.4294 11.2368C39.3579 11.2886 39.2734 11.3193 39.1853 11.3254C39.0973 11.3316 39.0093 11.3128 38.9314 11.2714L36.2228 9.83999C36.1534 9.80595 36.0772 9.78824 35.9999 9.78824C35.9227 9.78824 35.8464 9.80595 35.7771 9.83999L33.0685 11.2714C32.9906 11.3128 32.9026 11.3316 32.8146 11.3254C32.7265 11.3193 32.642 11.2886 32.5705 11.2368C32.4991 11.185 32.4436 11.1142 32.4104 11.0324C32.3772 10.9507 32.3677 10.8612 32.3828 10.7743L32.9057 7.71428C32.9189 7.6397 32.9133 7.563 32.8893 7.49114C32.8654 7.41929 32.8239 7.35456 32.7685 7.30285L30.5742 5.18571C30.5093 5.12408 30.4637 5.04494 30.4428 4.95789C30.4219 4.87084 30.4268 4.77961 30.4567 4.69525C30.4866 4.61089 30.5404 4.53702 30.6115 4.48259C30.6825 4.42815 30.7678 4.39549 30.8571 4.38857L33.8657 3.94285C33.9416 3.93444 34.014 3.90627 34.0757 3.86115C34.1373 3.81604 34.1861 3.75554 34.2171 3.68571L35.5799 0.93428C35.6171 0.854144 35.6763 0.786299 35.7507 0.738752C35.8252 0.691204 35.9116 0.665939 35.9999 0.665939C36.0883 0.665939 36.1747 0.691204 36.2491 0.738752C36.3236 0.786299 36.3828 0.854144 36.4199 0.93428Z" fill="#FFDC25" stroke="#FFDC25" stroke-width="0.857143" stroke-linecap="round" stroke-linejoin="round"/>
</g>
<g clip-path="url(#clip3_192_393)">
<path d="M51.4199 0.93428L52.7828 3.68571C52.8138 3.75554 52.8626 3.81604 52.9242 3.86115C52.9859 3.90627 53.0583 3.93444 53.1342 3.94285L56.1428 4.38857C56.2299 4.39976 56.312 4.43551 56.3796 4.49164C56.4471 4.54777 56.4973 4.62196 56.5243 4.70555C56.5513 4.78913 56.5539 4.87867 56.5319 4.96369C56.5098 5.04872 56.4641 5.12572 56.3999 5.18571L54.2314 7.33714C54.176 7.38885 54.1345 7.45357 54.1105 7.52543C54.0866 7.59729 54.081 7.67399 54.0942 7.74857L54.6171 10.7743C54.6322 10.8612 54.6227 10.9507 54.5895 11.0324C54.5563 11.1142 54.5008 11.185 54.4294 11.2368C54.3579 11.2886 54.2734 11.3193 54.1853 11.3254C54.0973 11.3316 54.0093 11.3128 53.9314 11.2714L51.2228 9.83999C51.1534 9.80595 51.0772 9.78824 50.9999 9.78824C50.9227 9.78824 50.8464 9.80595 50.7771 9.83999L48.0685 11.2714C47.9906 11.3128 47.9026 11.3316 47.8146 11.3254C47.7265 11.3193 47.642 11.2886 47.5705 11.2368C47.4991 11.185 47.4436 11.1142 47.4104 11.0324C47.3772 10.9507 47.3677 10.8612 47.3828 10.7743L47.9057 7.71428C47.9189 7.6397 47.9133 7.563 47.8893 7.49114C47.8654 7.41929 47.8239 7.35456 47.7685 7.30285L45.5742 5.18571C45.5093 5.12408 45.4637 5.04494 45.4428 4.95789C45.4219 4.87084 45.4268 4.77961 45.4567 4.69525C45.4866 4.61089 45.5404 4.53702 45.6115 4.48259C45.6825 4.42815 45.7678 4.39549 45.8571 4.38857L48.8657 3.94285C48.9416 3.93444 49.014 3.90627 49.0757 3.86115C49.1373 3.81604 49.1861 3.75554 49.2171 3.68571L50.5799 0.93428C50.6171 0.854144 50.6763 0.786299 50.7507 0.738752C50.8252 0.691204 50.9116 0.665939 50.9999 0.665939C51.0883 0.665939 51.1747 0.691204 51.2491 0.738752C51.3236 0.786299 51.3828 0.854144 51.4199 0.93428Z" fill="#FFDC25" stroke="#FFDC25" stroke-width="0.857143" stroke-linecap="round" stroke-linejoin="round"/>
</g>
<g clip-path="url(#clip4_192_393)">
<path d="M66.4199 0.93428L67.7828 3.68571C67.8138 3.75554 67.8626 3.81604 67.9242 3.86115C67.9859 3.90627 68.0583 3.93444 68.1342 3.94285L71.1428 4.38857C71.2299 4.39976 71.312 4.43551 71.3796 4.49164C71.4471 4.54777 71.4973 4.62196 71.5243 4.70555C71.5513 4.78913 71.5539 4.87867 71.5319 4.96369C71.5098 5.04871 71.4641 5.12572 71.3999 5.18571L69.2314 7.33714C69.176 7.38885 69.1345 7.45357 69.1105 7.52543C69.0866 7.59729 69.081 7.67399 69.0942 7.74857L69.6171 10.7743C69.6322 10.8612 69.6227 10.9507 69.5895 11.0324C69.5563 11.1142 69.5008 11.185 69.4294 11.2368C69.3579 11.2886 69.2734 11.3193 69.1853 11.3254C69.0973 11.3316 69.0093 11.3128 68.9314 11.2714L66.2228 9.83999C66.1534 9.80595 66.0772 9.78824 65.9999 9.78824C65.9227 9.78824 65.8464 9.80595 65.7771 9.83999L63.0685 11.2714C62.9906 11.3128 62.9026 11.3316 62.8146 11.3254C62.7265 11.3193 62.642 11.2886 62.5705 11.2368C62.4991 11.185 62.4436 11.1142 62.4104 11.0324C62.3772 10.9507 62.3677 10.8612 62.3828 10.7743L62.9057 7.71428C62.9189 7.6397 62.9133 7.563 62.8893 7.49114C62.8654 7.41929 62.8239 7.35456 62.7685 7.30285L60.5742 5.18571C60.5093 5.12408 60.4637 5.04494 60.4428 4.95789C60.4219 4.87084 60.4268 4.77961 60.4567 4.69525C60.4866 4.61089 60.5404 4.53702 60.6115 4.48259C60.6825 4.42815 60.7678 4.39549 60.8571 4.38857L63.8657 3.94285C63.9416 3.93444 64.014 3.90627 64.0757 3.86115C64.1373 3.81604 64.1861 3.75554 64.2171 3.68571L65.5799 0.93428C65.6171 0.854144 65.6763 0.786299 65.7507 0.738751C65.8252 0.691204 65.9116 0.665939 65.9999 0.665939C66.0883 0.665939 66.1747 0.691204 66.2491 0.738751C66.3236 0.786299 66.3828 0.854144 66.4199 0.93428Z" stroke="#FFDC25" stroke-width="0.857143" stroke-linecap="round" stroke-linejoin="round"/>
</g>
<defs>
<clipPath id="clip0_192_393">
<rect width="12" height="12" fill="white"/>
</clipPath>
<clipPath id="clip1_192_393">
<rect width="12" height="12" fill="white" transform="translate(15)"/>
</clipPath>
<clipPath id="clip2_192_393">
<rect width="12" height="12" fill="white" transform="translate(30)"/>
</clipPath>
<clipPath id="clip3_192_393">
<rect width="12" height="12" fill="white" transform="translate(45)"/>
</clipPath>
<clipPath id="clip4_192_393">
<rect width="12" height="12" fill="white" transform="translate(60)"/>
</clipPath>
</defs>
</svg>
