<svg width="72" height="12" viewBox="0 0 72 12" fill="none" xmlns="http://www.w3.org/2000/svg">
<g clip-path="url(#clip0_192_316)">
<path d="M6.42006 0.934295L7.78292 3.68572C7.81392 3.75556 7.86268 3.81605 7.92434 3.86117C7.986 3.90629 8.05841 3.93445 8.13435 3.94287L11.1429 4.38858C11.23 4.39978 11.3122 4.43553 11.3797 4.49166C11.4473 4.54779 11.4975 4.62198 11.5244 4.70556C11.5514 4.78915 11.554 4.87868 11.532 4.96371C11.51 5.04873 11.4642 5.12573 11.4001 5.18572L9.23149 7.33715C9.17615 7.38886 9.13461 7.45359 9.11065 7.52544C9.0867 7.5973 9.0811 7.67401 9.09435 7.74858L9.61721 10.7743C9.63235 10.8612 9.62278 10.9507 9.58959 11.0325C9.5564 11.1142 9.50093 11.185 9.42948 11.2368C9.35803 11.2886 9.27348 11.3193 9.18544 11.3255C9.0974 11.3316 9.00942 11.3129 8.93149 11.2714L6.22292 9.84001C6.15356 9.80596 6.07733 9.78826 6.00006 9.78826C5.9228 9.78826 5.84656 9.80596 5.77721 9.84001L3.06863 11.2714C2.99071 11.3129 2.90272 11.3316 2.81469 11.3255C2.72665 11.3193 2.6421 11.2886 2.57065 11.2368C2.4992 11.185 2.44373 11.1142 2.41054 11.0325C2.37735 10.9507 2.36778 10.8612 2.38292 10.7743L2.90578 7.71429C2.91903 7.63972 2.91342 7.56302 2.88947 7.49116C2.86552 7.4193 2.82398 7.35458 2.76863 7.30287L0.574349 5.18572C0.509431 5.12409 0.463777 5.04496 0.442918 4.95791C0.422059 4.87086 0.426889 4.77963 0.456824 4.69527C0.486758 4.6109 0.540513 4.53703 0.611575 4.4826C0.682638 4.42817 0.76796 4.39551 0.857206 4.38858L3.86578 3.94287C3.94172 3.93445 4.01413 3.90629 4.07579 3.86117C4.13745 3.81605 4.18621 3.75556 4.21721 3.68572L5.58006 0.934295C5.61718 0.85416 5.67644 0.786314 5.75086 0.738767C5.82528 0.691219 5.91175 0.665955 6.00006 0.665955C6.08838 0.665955 6.17485 0.691219 6.24927 0.738767C6.32369 0.786314 6.38295 0.85416 6.42006 0.934295Z" fill="#FFDC25" stroke="#FFDC25" stroke-width="0.857143" stroke-linecap="round" stroke-linejoin="round"/>
</g>
<g clip-path="url(#clip1_192_316)">
<path d="M21.4201 0.934295L22.7829 3.68572C22.8139 3.75556 22.8627 3.81605 22.9243 3.86117C22.986 3.90629 23.0584 3.93445 23.1343 3.94287L26.1429 4.38858C26.23 4.39978 26.3122 4.43553 26.3797 4.49166C26.4473 4.54779 26.4975 4.62198 26.5244 4.70556C26.5514 4.78915 26.554 4.87868 26.532 4.96371C26.51 5.04873 26.4642 5.12573 26.4001 5.18572L24.2315 7.33715C24.1761 7.38886 24.1346 7.45359 24.1107 7.52544C24.0867 7.5973 24.0811 7.67401 24.0943 7.74858L24.6172 10.7743C24.6323 10.8612 24.6228 10.9507 24.5896 11.0325C24.5564 11.1142 24.5009 11.185 24.4295 11.2368C24.358 11.2886 24.2735 11.3193 24.1854 11.3255C24.0974 11.3316 24.0094 11.3129 23.9315 11.2714L21.2229 9.84001C21.1536 9.80596 21.0773 9.78826 21.0001 9.78826C20.9228 9.78826 20.8466 9.80596 20.7772 9.84001L18.0686 11.2714C17.9907 11.3129 17.9027 11.3316 17.8147 11.3255C17.7266 11.3193 17.6421 11.2886 17.5706 11.2368C17.4992 11.185 17.4437 11.1142 17.4105 11.0325C17.3774 10.9507 17.3678 10.8612 17.3829 10.7743L17.9058 7.71429C17.919 7.63972 17.9134 7.56302 17.8895 7.49116C17.8655 7.4193 17.824 7.35458 17.7686 7.30287L15.5743 5.18572C15.5094 5.12409 15.4638 5.04496 15.4429 4.95791C15.4221 4.87086 15.4269 4.77963 15.4568 4.69527C15.4868 4.6109 15.5405 4.53703 15.6116 4.4826C15.6826 4.42817 15.768 4.39551 15.8572 4.38858L18.8658 3.94287C18.9417 3.93445 19.0141 3.90629 19.0758 3.86117C19.1375 3.81605 19.1862 3.75556 19.2172 3.68572L20.5801 0.934295C20.6172 0.85416 20.6764 0.786314 20.7509 0.738767C20.8253 0.691219 20.9118 0.665955 21.0001 0.665955C21.0884 0.665955 21.1748 0.691219 21.2493 0.738767C21.3237 0.786314 21.3829 0.85416 21.4201 0.934295Z" fill="#FFDC25" stroke="#FFDC25" stroke-width="0.857143" stroke-linecap="round" stroke-linejoin="round"/>
</g>
<g clip-path="url(#clip2_192_316)">
<path d="M36.4201 0.934295L37.7829 3.68572C37.8139 3.75556 37.8627 3.81605 37.9243 3.86117C37.986 3.90629 38.0584 3.93445 38.1343 3.94287L41.1429 4.38858C41.23 4.39978 41.3122 4.43553 41.3797 4.49166C41.4473 4.54779 41.4975 4.62198 41.5244 4.70556C41.5514 4.78915 41.554 4.87868 41.532 4.96371C41.51 5.04873 41.4642 5.12573 41.4001 5.18572L39.2315 7.33715C39.1761 7.38886 39.1346 7.45359 39.1107 7.52544C39.0867 7.5973 39.0811 7.67401 39.0943 7.74858L39.6172 10.7743C39.6323 10.8612 39.6228 10.9507 39.5896 11.0325C39.5564 11.1142 39.5009 11.185 39.4295 11.2368C39.358 11.2886 39.2735 11.3193 39.1854 11.3255C39.0974 11.3316 39.0094 11.3129 38.9315 11.2714L36.2229 9.84001C36.1536 9.80596 36.0773 9.78826 36.0001 9.78826C35.9228 9.78826 35.8466 9.80596 35.7772 9.84001L33.0686 11.2714C32.9907 11.3129 32.9027 11.3316 32.8147 11.3255C32.7266 11.3193 32.6421 11.2886 32.5706 11.2368C32.4992 11.185 32.4437 11.1142 32.4105 11.0325C32.3774 10.9507 32.3678 10.8612 32.3829 10.7743L32.9058 7.71429C32.919 7.63972 32.9134 7.56302 32.8895 7.49116C32.8655 7.4193 32.824 7.35458 32.7686 7.30287L30.5743 5.18572C30.5094 5.12409 30.4638 5.04496 30.4429 4.95791C30.4221 4.87086 30.4269 4.77963 30.4568 4.69527C30.4868 4.6109 30.5405 4.53703 30.6116 4.4826C30.6826 4.42817 30.768 4.39551 30.8572 4.38858L33.8658 3.94287C33.9417 3.93445 34.0141 3.90629 34.0758 3.86117C34.1375 3.81605 34.1862 3.75556 34.2172 3.68572L35.5801 0.934295C35.6172 0.85416 35.6764 0.786314 35.7509 0.738767C35.8253 0.691219 35.9118 0.665955 36.0001 0.665955C36.0884 0.665955 36.1748 0.691219 36.2493 0.738767C36.3237 0.786314 36.3829 0.85416 36.4201 0.934295Z" fill="#FFDC25" stroke="#FFDC25" stroke-width="0.857143" stroke-linecap="round" stroke-linejoin="round"/>
</g>
<g clip-path="url(#clip3_192_316)">
<path d="M51.4201 0.934295L52.7829 3.68572C52.8139 3.75556 52.8627 3.81605 52.9243 3.86117C52.986 3.90629 53.0584 3.93445 53.1343 3.94287L56.1429 4.38858C56.23 4.39978 56.3122 4.43553 56.3797 4.49166C56.4473 4.54779 56.4975 4.62198 56.5244 4.70556C56.5514 4.78915 56.554 4.87868 56.532 4.96371C56.51 5.04873 56.4642 5.12573 56.4001 5.18572L54.2315 7.33715C54.1761 7.38886 54.1346 7.45359 54.1107 7.52544C54.0867 7.5973 54.0811 7.67401 54.0943 7.74858L54.6172 10.7743C54.6323 10.8612 54.6228 10.9507 54.5896 11.0325C54.5564 11.1142 54.5009 11.185 54.4295 11.2368C54.358 11.2886 54.2735 11.3193 54.1854 11.3255C54.0974 11.3316 54.0094 11.3129 53.9315 11.2714L51.2229 9.84001C51.1536 9.80596 51.0773 9.78826 51.0001 9.78826C50.9228 9.78826 50.8466 9.80596 50.7772 9.84001L48.0686 11.2714C47.9907 11.3129 47.9027 11.3316 47.8147 11.3255C47.7266 11.3193 47.6421 11.2886 47.5706 11.2368C47.4992 11.185 47.4437 11.1142 47.4105 11.0325C47.3774 10.9507 47.3678 10.8612 47.3829 10.7743L47.9058 7.71429C47.919 7.63972 47.9134 7.56302 47.8895 7.49116C47.8655 7.4193 47.824 7.35458 47.7686 7.30287L45.5743 5.18572C45.5094 5.12409 45.4638 5.04496 45.4429 4.95791C45.4221 4.87086 45.4269 4.77963 45.4568 4.69527C45.4868 4.6109 45.5405 4.53703 45.6116 4.4826C45.6826 4.42817 45.768 4.39551 45.8572 4.38858L48.8658 3.94287C48.9417 3.93445 49.0141 3.90629 49.0758 3.86117C49.1375 3.81605 49.1862 3.75556 49.2172 3.68572L50.5801 0.934295C50.6172 0.85416 50.6764 0.786314 50.7509 0.738767C50.8253 0.691219 50.9118 0.665955 51.0001 0.665955C51.0884 0.665955 51.1748 0.691219 51.2493 0.738767C51.3237 0.786314 51.3829 0.85416 51.4201 0.934295Z" fill="#FFDC25" stroke="#FFDC25" stroke-width="0.857143" stroke-linecap="round" stroke-linejoin="round"/>
</g>
<g clip-path="url(#clip4_192_316)">
<path d="M66.4201 0.934295L67.7829 3.68572C67.8139 3.75556 67.8627 3.81605 67.9243 3.86117C67.986 3.90629 68.0584 3.93445 68.1343 3.94287L71.1429 4.38858C71.23 4.39978 71.3122 4.43553 71.3797 4.49166C71.4473 4.54779 71.4975 4.62198 71.5244 4.70556C71.5514 4.78915 71.554 4.87868 71.532 4.96371C71.51 5.04873 71.4642 5.12573 71.4001 5.18572L69.2315 7.33715C69.1761 7.38886 69.1346 7.45359 69.1107 7.52544C69.0867 7.5973 69.0811 7.67401 69.0943 7.74858L69.6172 10.7743C69.6323 10.8612 69.6228 10.9507 69.5896 11.0325C69.5564 11.1142 69.5009 11.185 69.4295 11.2368C69.358 11.2886 69.2735 11.3193 69.1854 11.3255C69.0974 11.3316 69.0094 11.3129 68.9315 11.2714L66.2229 9.84001C66.1536 9.80596 66.0773 9.78826 66.0001 9.78826C65.9228 9.78826 65.8466 9.80596 65.7772 9.84001L63.0686 11.2714C62.9907 11.3129 62.9027 11.3316 62.8147 11.3255C62.7266 11.3193 62.6421 11.2886 62.5706 11.2368C62.4992 11.185 62.4437 11.1142 62.4105 11.0325C62.3774 10.9507 62.3678 10.8612 62.3829 10.7743L62.9058 7.71429C62.919 7.63972 62.9134 7.56302 62.8895 7.49116C62.8655 7.4193 62.824 7.35458 62.7686 7.30287L60.5743 5.18572C60.5094 5.12409 60.4638 5.04496 60.4429 4.95791C60.4221 4.87086 60.4269 4.77963 60.4568 4.69527C60.4868 4.6109 60.5405 4.53703 60.6116 4.4826C60.6826 4.42817 60.768 4.39551 60.8572 4.38858L63.8658 3.94287C63.9417 3.93445 64.0141 3.90629 64.0758 3.86117C64.1375 3.81605 64.1862 3.75556 64.2172 3.68572L65.5801 0.934295C65.6172 0.85416 65.6764 0.786314 65.7509 0.738767C65.8253 0.691219 65.9118 0.665955 66.0001 0.665955C66.0884 0.665955 66.1748 0.691219 66.2493 0.738767C66.3237 0.786314 66.3829 0.85416 66.4201 0.934295Z" stroke="#FFDC25" stroke-width="0.857143" stroke-linecap="round" stroke-linejoin="round"/>
</g>
<defs>
<clipPath id="clip0_192_316">
<rect width="12" height="12" fill="white"/>
</clipPath>
<clipPath id="clip1_192_316">
<rect width="12" height="12" fill="white" transform="translate(15)"/>
</clipPath>
<clipPath id="clip2_192_316">
<rect width="12" height="12" fill="white" transform="translate(30)"/>
</clipPath>
<clipPath id="clip3_192_316">
<rect width="12" height="12" fill="white" transform="translate(45)"/>
</clipPath>
<clipPath id="clip4_192_316">
<rect width="12" height="12" fill="white" transform="translate(60)"/>
</clipPath>
</defs>
</svg>
