<svg width="72" height="12" viewBox="0 0 72 12" fill="none" xmlns="http://www.w3.org/2000/svg">
<g clip-path="url(#clip0_192_327)">
<path d="M6.42006 0.93428L7.78292 3.68571C7.81392 3.75554 7.86268 3.81604 7.92434 3.86115C7.986 3.90627 8.05841 3.93444 8.13435 3.94285L11.1429 4.38857C11.23 4.39976 11.3122 4.43551 11.3797 4.49164C11.4473 4.54777 11.4975 4.62196 11.5244 4.70555C11.5514 4.78913 11.554 4.87867 11.532 4.96369C11.51 5.04872 11.4642 5.12572 11.4001 5.18571L9.23149 7.33714C9.17615 7.38885 9.13461 7.45357 9.11065 7.52543C9.0867 7.59729 9.0811 7.67399 9.09435 7.74857L9.61721 10.7743C9.63235 10.8612 9.62278 10.9507 9.58959 11.0324C9.5564 11.1142 9.50093 11.185 9.42948 11.2368C9.35803 11.2886 9.27348 11.3193 9.18544 11.3254C9.0974 11.3316 9.00942 11.3128 8.93149 11.2714L6.22292 9.83999C6.15356 9.80595 6.07733 9.78824 6.00006 9.78824C5.9228 9.78824 5.84656 9.80595 5.77721 9.83999L3.06863 11.2714C2.99071 11.3128 2.90272 11.3316 2.81469 11.3254C2.72665 11.3193 2.6421 11.2886 2.57065 11.2368C2.4992 11.185 2.44373 11.1142 2.41054 11.0324C2.37735 10.9507 2.36778 10.8612 2.38292 10.7743L2.90578 7.71428C2.91903 7.6397 2.91342 7.563 2.88947 7.49114C2.86552 7.41929 2.82398 7.35456 2.76863 7.30285L0.574349 5.18571C0.509431 5.12408 0.463777 5.04494 0.442918 4.95789C0.422059 4.87084 0.426889 4.77961 0.456824 4.69525C0.486758 4.61089 0.540513 4.53702 0.611575 4.48259C0.682638 4.42815 0.76796 4.39549 0.857206 4.38857L3.86578 3.94285C3.94172 3.93444 4.01413 3.90627 4.07579 3.86115C4.13745 3.81604 4.18621 3.75554 4.21721 3.68571L5.58006 0.93428C5.61718 0.854144 5.67644 0.786299 5.75086 0.738752C5.82528 0.691204 5.91175 0.665939 6.00006 0.665939C6.08838 0.665939 6.17485 0.691204 6.24927 0.738752C6.32369 0.786299 6.38295 0.854144 6.42006 0.93428Z" fill="#FFDC25" stroke="#FFDC25" stroke-width="0.857143" stroke-linecap="round" stroke-linejoin="round"/>
</g>
<g clip-path="url(#clip1_192_327)">
<path d="M21.4201 0.93428L22.7829 3.68571C22.8139 3.75554 22.8627 3.81604 22.9243 3.86115C22.986 3.90627 23.0584 3.93444 23.1343 3.94285L26.1429 4.38857C26.23 4.39976 26.3122 4.43551 26.3797 4.49164C26.4473 4.54777 26.4975 4.62196 26.5244 4.70555C26.5514 4.78913 26.554 4.87867 26.532 4.96369C26.51 5.04872 26.4642 5.12572 26.4001 5.18571L24.2315 7.33714C24.1761 7.38885 24.1346 7.45357 24.1107 7.52543C24.0867 7.59729 24.0811 7.67399 24.0943 7.74857L24.6172 10.7743C24.6323 10.8612 24.6228 10.9507 24.5896 11.0324C24.5564 11.1142 24.5009 11.185 24.4295 11.2368C24.358 11.2886 24.2735 11.3193 24.1854 11.3254C24.0974 11.3316 24.0094 11.3128 23.9315 11.2714L21.2229 9.83999C21.1536 9.80595 21.0773 9.78824 21.0001 9.78824C20.9228 9.78824 20.8466 9.80595 20.7772 9.83999L18.0686 11.2714C17.9907 11.3128 17.9027 11.3316 17.8147 11.3254C17.7266 11.3193 17.6421 11.2886 17.5706 11.2368C17.4992 11.185 17.4437 11.1142 17.4105 11.0324C17.3774 10.9507 17.3678 10.8612 17.3829 10.7743L17.9058 7.71428C17.919 7.6397 17.9134 7.563 17.8895 7.49114C17.8655 7.41929 17.824 7.35456 17.7686 7.30285L15.5743 5.18571C15.5094 5.12408 15.4638 5.04494 15.4429 4.95789C15.4221 4.87084 15.4269 4.77961 15.4568 4.69525C15.4868 4.61089 15.5405 4.53702 15.6116 4.48259C15.6826 4.42815 15.768 4.39549 15.8572 4.38857L18.8658 3.94285C18.9417 3.93444 19.0141 3.90627 19.0758 3.86115C19.1375 3.81604 19.1862 3.75554 19.2172 3.68571L20.5801 0.93428C20.6172 0.854144 20.6764 0.786299 20.7509 0.738752C20.8253 0.691204 20.9118 0.665939 21.0001 0.665939C21.0884 0.665939 21.1748 0.691204 21.2493 0.738752C21.3237 0.786299 21.3829 0.854144 21.4201 0.93428Z" fill="#FFDC25" stroke="#FFDC25" stroke-width="0.857143" stroke-linecap="round" stroke-linejoin="round"/>
</g>
<g clip-path="url(#clip2_192_327)">
<path d="M36.4201 0.93428L37.7829 3.68571C37.8139 3.75554 37.8627 3.81604 37.9243 3.86115C37.986 3.90627 38.0584 3.93444 38.1343 3.94285L41.1429 4.38857C41.23 4.39976 41.3122 4.43551 41.3797 4.49164C41.4473 4.54777 41.4975 4.62196 41.5244 4.70555C41.5514 4.78913 41.554 4.87867 41.532 4.96369C41.51 5.04872 41.4642 5.12572 41.4001 5.18571L39.2315 7.33714C39.1761 7.38885 39.1346 7.45357 39.1107 7.52543C39.0867 7.59729 39.0811 7.67399 39.0943 7.74857L39.6172 10.7743C39.6323 10.8612 39.6228 10.9507 39.5896 11.0324C39.5564 11.1142 39.5009 11.185 39.4295 11.2368C39.358 11.2886 39.2735 11.3193 39.1854 11.3254C39.0974 11.3316 39.0094 11.3128 38.9315 11.2714L36.2229 9.83999C36.1536 9.80595 36.0773 9.78824 36.0001 9.78824C35.9228 9.78824 35.8466 9.80595 35.7772 9.83999L33.0686 11.2714C32.9907 11.3128 32.9027 11.3316 32.8147 11.3254C32.7266 11.3193 32.6421 11.2886 32.5706 11.2368C32.4992 11.185 32.4437 11.1142 32.4105 11.0324C32.3774 10.9507 32.3678 10.8612 32.3829 10.7743L32.9058 7.71428C32.919 7.6397 32.9134 7.563 32.8895 7.49114C32.8655 7.41929 32.824 7.35456 32.7686 7.30285L30.5743 5.18571C30.5094 5.12408 30.4638 5.04494 30.4429 4.95789C30.4221 4.87084 30.4269 4.77961 30.4568 4.69525C30.4868 4.61089 30.5405 4.53702 30.6116 4.48259C30.6826 4.42815 30.768 4.39549 30.8572 4.38857L33.8658 3.94285C33.9417 3.93444 34.0141 3.90627 34.0758 3.86115C34.1375 3.81604 34.1862 3.75554 34.2172 3.68571L35.5801 0.93428C35.6172 0.854144 35.6764 0.786299 35.7509 0.738752C35.8253 0.691204 35.9118 0.665939 36.0001 0.665939C36.0884 0.665939 36.1748 0.691204 36.2493 0.738752C36.3237 0.786299 36.3829 0.854144 36.4201 0.93428Z" fill="#FFDC25" stroke="#FFDC25" stroke-width="0.857143" stroke-linecap="round" stroke-linejoin="round"/>
</g>
<g clip-path="url(#clip3_192_327)">
<path d="M51.4201 0.93428L52.7829 3.68571C52.8139 3.75554 52.8627 3.81604 52.9243 3.86115C52.986 3.90627 53.0584 3.93444 53.1343 3.94285L56.1429 4.38857C56.23 4.39976 56.3122 4.43551 56.3797 4.49164C56.4473 4.54777 56.4975 4.62196 56.5244 4.70555C56.5514 4.78913 56.554 4.87867 56.532 4.96369C56.51 5.04872 56.4642 5.12572 56.4001 5.18571L54.2315 7.33714C54.1761 7.38885 54.1346 7.45357 54.1107 7.52543C54.0867 7.59729 54.0811 7.67399 54.0943 7.74857L54.6172 10.7743C54.6323 10.8612 54.6228 10.9507 54.5896 11.0324C54.5564 11.1142 54.5009 11.185 54.4295 11.2368C54.358 11.2886 54.2735 11.3193 54.1854 11.3254C54.0974 11.3316 54.0094 11.3128 53.9315 11.2714L51.2229 9.83999C51.1536 9.80595 51.0773 9.78824 51.0001 9.78824C50.9228 9.78824 50.8466 9.80595 50.7772 9.83999L48.0686 11.2714C47.9907 11.3128 47.9027 11.3316 47.8147 11.3254C47.7266 11.3193 47.6421 11.2886 47.5706 11.2368C47.4992 11.185 47.4437 11.1142 47.4105 11.0324C47.3774 10.9507 47.3678 10.8612 47.3829 10.7743L47.9058 7.71428C47.919 7.6397 47.9134 7.563 47.8895 7.49114C47.8655 7.41929 47.824 7.35456 47.7686 7.30285L45.5743 5.18571C45.5094 5.12408 45.4638 5.04494 45.4429 4.95789C45.4221 4.87084 45.4269 4.77961 45.4568 4.69525C45.4868 4.61089 45.5405 4.53702 45.6116 4.48259C45.6826 4.42815 45.768 4.39549 45.8572 4.38857L48.8658 3.94285C48.9417 3.93444 49.0141 3.90627 49.0758 3.86115C49.1375 3.81604 49.1862 3.75554 49.2172 3.68571L50.5801 0.93428C50.6172 0.854144 50.6764 0.786299 50.7509 0.738752C50.8253 0.691204 50.9118 0.665939 51.0001 0.665939C51.0884 0.665939 51.1748 0.691204 51.2493 0.738752C51.3237 0.786299 51.3829 0.854144 51.4201 0.93428Z" fill="#FFDC25" stroke="#FFDC25" stroke-width="0.857143" stroke-linecap="round" stroke-linejoin="round"/>
</g>
<g clip-path="url(#clip4_192_327)">
<path d="M66.4201 0.93428L67.7829 3.68571C67.8139 3.75554 67.8627 3.81604 67.9243 3.86115C67.986 3.90627 68.0584 3.93444 68.1343 3.94285L71.1429 4.38857C71.23 4.39976 71.3122 4.43551 71.3797 4.49164C71.4473 4.54777 71.4975 4.62196 71.5244 4.70555C71.5514 4.78913 71.554 4.87867 71.532 4.96369C71.51 5.04871 71.4642 5.12572 71.4001 5.18571L69.2315 7.33714C69.1761 7.38885 69.1346 7.45357 69.1107 7.52543C69.0867 7.59729 69.0811 7.67399 69.0943 7.74857L69.6172 10.7743C69.6323 10.8612 69.6228 10.9507 69.5896 11.0324C69.5564 11.1142 69.5009 11.185 69.4295 11.2368C69.358 11.2886 69.2735 11.3193 69.1854 11.3254C69.0974 11.3316 69.0094 11.3128 68.9315 11.2714L66.2229 9.83999C66.1536 9.80595 66.0773 9.78824 66.0001 9.78824C65.9228 9.78824 65.8466 9.80595 65.7772 9.83999L63.0686 11.2714C62.9907 11.3128 62.9027 11.3316 62.8147 11.3254C62.7266 11.3193 62.6421 11.2886 62.5706 11.2368C62.4992 11.185 62.4437 11.1142 62.4105 11.0324C62.3774 10.9507 62.3678 10.8612 62.3829 10.7743L62.9058 7.71428C62.919 7.6397 62.9134 7.563 62.8895 7.49114C62.8655 7.41929 62.824 7.35456 62.7686 7.30285L60.5743 5.18571C60.5094 5.12408 60.4638 5.04494 60.4429 4.95789C60.4221 4.87084 60.4269 4.77961 60.4568 4.69525C60.4868 4.61089 60.5405 4.53702 60.6116 4.48259C60.6826 4.42815 60.768 4.39549 60.8572 4.38857L63.8658 3.94285C63.9417 3.93444 64.0141 3.90627 64.0758 3.86115C64.1375 3.81604 64.1862 3.75554 64.2172 3.68571L65.5801 0.93428C65.6172 0.854144 65.6764 0.786299 65.7509 0.738751C65.8253 0.691204 65.9118 0.665939 66.0001 0.665939C66.0884 0.665939 66.1748 0.691204 66.2493 0.738751C66.3237 0.786299 66.3829 0.854144 66.4201 0.93428Z" stroke="#FFDC25" stroke-width="0.857143" stroke-linecap="round" stroke-linejoin="round"/>
</g>
<defs>
<clipPath id="clip0_192_327">
<rect width="12" height="12" fill="white"/>
</clipPath>
<clipPath id="clip1_192_327">
<rect width="12" height="12" fill="white" transform="translate(15)"/>
</clipPath>
<clipPath id="clip2_192_327">
<rect width="12" height="12" fill="white" transform="translate(30)"/>
</clipPath>
<clipPath id="clip3_192_327">
<rect width="12" height="12" fill="white" transform="translate(45)"/>
</clipPath>
<clipPath id="clip4_192_327">
<rect width="12" height="12" fill="white" transform="translate(60)"/>
</clipPath>
</defs>
</svg>
