<svg width="72" height="12" viewBox="0 0 72 12" fill="none" xmlns="http://www.w3.org/2000/svg">
<g clip-path="url(#clip0_192_338)">
<path d="M6.42006 0.934287L7.78292 3.68572C7.81392 3.75555 7.86268 3.81604 7.92434 3.86116C7.986 3.90628 8.05841 3.93445 8.13435 3.94286L11.1429 4.38857C11.23 4.39977 11.3122 4.43552 11.3797 4.49165C11.4473 4.54778 11.4975 4.62197 11.5244 4.70556C11.5514 4.78914 11.554 4.87868 11.532 4.9637C11.51 5.04872 11.4642 5.12573 11.4001 5.18572L9.23149 7.33714C9.17615 7.38885 9.13461 7.45358 9.11065 7.52544C9.0867 7.59729 9.0811 7.674 9.09435 7.74857L9.61721 10.7743C9.63235 10.8612 9.62278 10.9507 9.58959 11.0324C9.5564 11.1142 9.50093 11.185 9.42948 11.2368C9.35803 11.2886 9.27348 11.3193 9.18544 11.3255C9.0974 11.3316 9.00942 11.3129 8.93149 11.2714L6.22292 9.84C6.15356 9.80595 6.07733 9.78825 6.00006 9.78825C5.9228 9.78825 5.84656 9.80595 5.77721 9.84L3.06863 11.2714C2.99071 11.3129 2.90272 11.3316 2.81469 11.3255C2.72665 11.3193 2.6421 11.2886 2.57065 11.2368C2.4992 11.185 2.44373 11.1142 2.41054 11.0324C2.37735 10.9507 2.36778 10.8612 2.38292 10.7743L2.90578 7.71429C2.91903 7.63971 2.91342 7.56301 2.88947 7.49115C2.86552 7.4193 2.82398 7.35457 2.76863 7.30286L0.574349 5.18572C0.509431 5.12408 0.463777 5.04495 0.442918 4.9579C0.422059 4.87085 0.426889 4.77962 0.456824 4.69526C0.486758 4.6109 0.540513 4.53703 0.611575 4.48259C0.682638 4.42816 0.76796 4.3955 0.857206 4.38857L3.86578 3.94286C3.94172 3.93445 4.01413 3.90628 4.07579 3.86116C4.13745 3.81604 4.18621 3.75555 4.21721 3.68572L5.58006 0.934287C5.61718 0.854152 5.67644 0.786307 5.75086 0.738759C5.82528 0.691212 5.91175 0.665947 6.00006 0.665947C6.08838 0.665947 6.17485 0.691212 6.24927 0.738759C6.32369 0.786307 6.38295 0.854152 6.42006 0.934287Z" fill="#FFDC25" stroke="#FFDC25" stroke-width="0.857143" stroke-linecap="round" stroke-linejoin="round"/>
</g>
<g clip-path="url(#clip1_192_338)">
<path d="M21.4201 0.934287L22.7829 3.68572C22.8139 3.75555 22.8627 3.81604 22.9243 3.86116C22.986 3.90628 23.0584 3.93445 23.1343 3.94286L26.1429 4.38857C26.23 4.39977 26.3122 4.43552 26.3797 4.49165C26.4473 4.54778 26.4975 4.62197 26.5244 4.70556C26.5514 4.78914 26.554 4.87868 26.532 4.9637C26.51 5.04872 26.4642 5.12573 26.4001 5.18572L24.2315 7.33714C24.1761 7.38885 24.1346 7.45358 24.1107 7.52544C24.0867 7.59729 24.0811 7.674 24.0943 7.74857L24.6172 10.7743C24.6323 10.8612 24.6228 10.9507 24.5896 11.0324C24.5564 11.1142 24.5009 11.185 24.4295 11.2368C24.358 11.2886 24.2735 11.3193 24.1854 11.3255C24.0974 11.3316 24.0094 11.3129 23.9315 11.2714L21.2229 9.84C21.1536 9.80595 21.0773 9.78825 21.0001 9.78825C20.9228 9.78825 20.8466 9.80595 20.7772 9.84L18.0686 11.2714C17.9907 11.3129 17.9027 11.3316 17.8147 11.3255C17.7266 11.3193 17.6421 11.2886 17.5706 11.2368C17.4992 11.185 17.4437 11.1142 17.4105 11.0324C17.3774 10.9507 17.3678 10.8612 17.3829 10.7743L17.9058 7.71429C17.919 7.63971 17.9134 7.56301 17.8895 7.49115C17.8655 7.4193 17.824 7.35457 17.7686 7.30286L15.5743 5.18572C15.5094 5.12408 15.4638 5.04495 15.4429 4.9579C15.4221 4.87085 15.4269 4.77962 15.4568 4.69526C15.4868 4.6109 15.5405 4.53703 15.6116 4.48259C15.6826 4.42816 15.768 4.3955 15.8572 4.38857L18.8658 3.94286C18.9417 3.93445 19.0141 3.90628 19.0758 3.86116C19.1375 3.81604 19.1862 3.75555 19.2172 3.68572L20.5801 0.934287C20.6172 0.854152 20.6764 0.786307 20.7509 0.738759C20.8253 0.691212 20.9118 0.665947 21.0001 0.665947C21.0884 0.665947 21.1748 0.691212 21.2493 0.738759C21.3237 0.786307 21.3829 0.854152 21.4201 0.934287Z" fill="#FFDC25" stroke="#FFDC25" stroke-width="0.857143" stroke-linecap="round" stroke-linejoin="round"/>
</g>
<g clip-path="url(#clip2_192_338)">
<path d="M36.4201 0.934287L37.7829 3.68572C37.8139 3.75555 37.8627 3.81604 37.9243 3.86116C37.986 3.90628 38.0584 3.93445 38.1343 3.94286L41.1429 4.38857C41.23 4.39977 41.3122 4.43552 41.3797 4.49165C41.4473 4.54778 41.4975 4.62197 41.5244 4.70556C41.5514 4.78914 41.554 4.87868 41.532 4.9637C41.51 5.04872 41.4642 5.12573 41.4001 5.18572L39.2315 7.33714C39.1761 7.38885 39.1346 7.45358 39.1107 7.52544C39.0867 7.59729 39.0811 7.674 39.0943 7.74857L39.6172 10.7743C39.6323 10.8612 39.6228 10.9507 39.5896 11.0324C39.5564 11.1142 39.5009 11.185 39.4295 11.2368C39.358 11.2886 39.2735 11.3193 39.1854 11.3255C39.0974 11.3316 39.0094 11.3129 38.9315 11.2714L36.2229 9.84C36.1536 9.80595 36.0773 9.78825 36.0001 9.78825C35.9228 9.78825 35.8466 9.80595 35.7772 9.84L33.0686 11.2714C32.9907 11.3129 32.9027 11.3316 32.8147 11.3255C32.7266 11.3193 32.6421 11.2886 32.5706 11.2368C32.4992 11.185 32.4437 11.1142 32.4105 11.0324C32.3774 10.9507 32.3678 10.8612 32.3829 10.7743L32.9058 7.71429C32.919 7.63971 32.9134 7.56301 32.8895 7.49115C32.8655 7.4193 32.824 7.35457 32.7686 7.30286L30.5743 5.18572C30.5094 5.12408 30.4638 5.04495 30.4429 4.9579C30.4221 4.87085 30.4269 4.77962 30.4568 4.69526C30.4868 4.6109 30.5405 4.53703 30.6116 4.48259C30.6826 4.42816 30.768 4.3955 30.8572 4.38857L33.8658 3.94286C33.9417 3.93445 34.0141 3.90628 34.0758 3.86116C34.1375 3.81604 34.1862 3.75555 34.2172 3.68572L35.5801 0.934287C35.6172 0.854152 35.6764 0.786307 35.7509 0.738759C35.8253 0.691212 35.9118 0.665947 36.0001 0.665947C36.0884 0.665947 36.1748 0.691212 36.2493 0.738759C36.3237 0.786307 36.3829 0.854152 36.4201 0.934287Z" fill="#FFDC25" stroke="#FFDC25" stroke-width="0.857143" stroke-linecap="round" stroke-linejoin="round"/>
</g>
<g clip-path="url(#clip3_192_338)">
<path d="M51.4201 0.934287L52.7829 3.68572C52.8139 3.75555 52.8627 3.81604 52.9243 3.86116C52.986 3.90628 53.0584 3.93445 53.1343 3.94286L56.1429 4.38857C56.23 4.39977 56.3122 4.43552 56.3797 4.49165C56.4473 4.54778 56.4975 4.62197 56.5244 4.70556C56.5514 4.78914 56.554 4.87868 56.532 4.9637C56.51 5.04872 56.4642 5.12573 56.4001 5.18572L54.2315 7.33714C54.1761 7.38885 54.1346 7.45358 54.1107 7.52544C54.0867 7.59729 54.0811 7.674 54.0943 7.74857L54.6172 10.7743C54.6323 10.8612 54.6228 10.9507 54.5896 11.0324C54.5564 11.1142 54.5009 11.185 54.4295 11.2368C54.358 11.2886 54.2735 11.3193 54.1854 11.3255C54.0974 11.3316 54.0094 11.3129 53.9315 11.2714L51.2229 9.84C51.1536 9.80595 51.0773 9.78825 51.0001 9.78825C50.9228 9.78825 50.8466 9.80595 50.7772 9.84L48.0686 11.2714C47.9907 11.3129 47.9027 11.3316 47.8147 11.3255C47.7266 11.3193 47.6421 11.2886 47.5706 11.2368C47.4992 11.185 47.4437 11.1142 47.4105 11.0324C47.3774 10.9507 47.3678 10.8612 47.3829 10.7743L47.9058 7.71429C47.919 7.63971 47.9134 7.56301 47.8895 7.49115C47.8655 7.4193 47.824 7.35457 47.7686 7.30286L45.5743 5.18572C45.5094 5.12408 45.4638 5.04495 45.4429 4.9579C45.4221 4.87085 45.4269 4.77962 45.4568 4.69526C45.4868 4.6109 45.5405 4.53703 45.6116 4.48259C45.6826 4.42816 45.768 4.3955 45.8572 4.38857L48.8658 3.94286C48.9417 3.93445 49.0141 3.90628 49.0758 3.86116C49.1375 3.81604 49.1862 3.75555 49.2172 3.68572L50.5801 0.934287C50.6172 0.854152 50.6764 0.786307 50.7509 0.738759C50.8253 0.691212 50.9118 0.665947 51.0001 0.665947C51.0884 0.665947 51.1748 0.691212 51.2493 0.738759C51.3237 0.786307 51.3829 0.854152 51.4201 0.934287Z" fill="#FFDC25" stroke="#FFDC25" stroke-width="0.857143" stroke-linecap="round" stroke-linejoin="round"/>
</g>
<g clip-path="url(#clip4_192_338)">
<path d="M66.4201 0.934287L67.7829 3.68572C67.8139 3.75555 67.8627 3.81604 67.9243 3.86116C67.986 3.90628 68.0584 3.93445 68.1343 3.94286L71.1429 4.38857C71.23 4.39977 71.3122 4.43552 71.3797 4.49165C71.4473 4.54778 71.4975 4.62197 71.5244 4.70556C71.5514 4.78914 71.554 4.87868 71.532 4.9637C71.51 5.04872 71.4642 5.12573 71.4001 5.18572L69.2315 7.33715C69.1761 7.38885 69.1346 7.45358 69.1107 7.52544C69.0867 7.59729 69.0811 7.674 69.0943 7.74857L69.6172 10.7743C69.6323 10.8612 69.6228 10.9507 69.5896 11.0324C69.5564 11.1142 69.5009 11.185 69.4295 11.2368C69.358 11.2886 69.2735 11.3193 69.1854 11.3255C69.0974 11.3316 69.0094 11.3129 68.9315 11.2714L66.2229 9.84C66.1536 9.80595 66.0773 9.78825 66.0001 9.78825C65.9228 9.78825 65.8466 9.80595 65.7772 9.84L63.0686 11.2714C62.9907 11.3129 62.9027 11.3316 62.8147 11.3255C62.7266 11.3193 62.6421 11.2886 62.5706 11.2368C62.4992 11.185 62.4437 11.1142 62.4105 11.0324C62.3774 10.9507 62.3678 10.8612 62.3829 10.7743L62.9058 7.71429C62.919 7.63971 62.9134 7.56301 62.8895 7.49115C62.8655 7.4193 62.824 7.35457 62.7686 7.30286L60.5743 5.18572C60.5094 5.12408 60.4638 5.04495 60.4429 4.9579C60.4221 4.87085 60.4269 4.77962 60.4568 4.69526C60.4868 4.6109 60.5405 4.53703 60.6116 4.48259C60.6826 4.42816 60.768 4.3955 60.8572 4.38857L63.8658 3.94286C63.9417 3.93445 64.0141 3.90628 64.0758 3.86116C64.1375 3.81604 64.1862 3.75555 64.2172 3.68572L65.5801 0.934287C65.6172 0.854152 65.6764 0.786307 65.7509 0.738759C65.8253 0.691212 65.9118 0.665947 66.0001 0.665947C66.0884 0.665947 66.1748 0.691212 66.2493 0.738759C66.3237 0.786307 66.3829 0.854152 66.4201 0.934287Z" stroke="#FFDC25" stroke-width="0.857143" stroke-linecap="round" stroke-linejoin="round"/>
</g>
<defs>
<clipPath id="clip0_192_338">
<rect width="12" height="12" fill="white"/>
</clipPath>
<clipPath id="clip1_192_338">
<rect width="12" height="12" fill="white" transform="translate(15)"/>
</clipPath>
<clipPath id="clip2_192_338">
<rect width="12" height="12" fill="white" transform="translate(30)"/>
</clipPath>
<clipPath id="clip3_192_338">
<rect width="12" height="12" fill="white" transform="translate(45)"/>
</clipPath>
<clipPath id="clip4_192_338">
<rect width="12" height="12" fill="white" transform="translate(60)"/>
</clipPath>
</defs>
</svg>
