<svg width="72" height="12" viewBox="0 0 72 12" fill="none" xmlns="http://www.w3.org/2000/svg">
<g clip-path="url(#clip0_192_382)">
<path d="M6.41994 0.934295L7.7828 3.68572C7.8138 3.75556 7.86255 3.81605 7.92422 3.86117C7.98588 3.90629 8.05829 3.93445 8.13423 3.94287L11.1428 4.38858C11.2299 4.39978 11.312 4.43553 11.3796 4.49166C11.4471 4.54779 11.4973 4.62198 11.5243 4.70556C11.5513 4.78915 11.5539 4.87868 11.5319 4.96371C11.5098 5.04873 11.4641 5.12573 11.3999 5.18572L9.23137 7.33715C9.17602 7.38886 9.13449 7.45359 9.11053 7.52544C9.08658 7.5973 9.08098 7.67401 9.09423 7.74858L9.61708 10.7743C9.63222 10.8612 9.62265 10.9507 9.58947 11.0325C9.55628 11.1142 9.5008 11.185 9.42936 11.2368C9.35791 11.2886 9.27336 11.3193 9.18532 11.3255C9.09728 11.3316 9.00929 11.3129 8.93137 11.2714L6.2228 9.84001C6.15344 9.80596 6.07721 9.78826 5.99994 9.78826C5.92268 9.78826 5.84644 9.80596 5.77708 9.84001L3.06851 11.2714C2.99059 11.3129 2.9026 11.3316 2.81456 11.3255C2.72653 11.3193 2.64197 11.2886 2.57053 11.2368C2.49908 11.185 2.4436 11.1142 2.41042 11.0325C2.37723 10.9507 2.36766 10.8612 2.3828 10.7743L2.90566 7.71429C2.91891 7.63972 2.9133 7.56302 2.88935 7.49116C2.8654 7.4193 2.82386 7.35458 2.76851 7.30287L0.574227 5.18572C0.509309 5.12409 0.463655 5.04496 0.442796 4.95791C0.421937 4.87086 0.426767 4.77963 0.456702 4.69527C0.486636 4.6109 0.54039 4.53703 0.611453 4.4826C0.682516 4.42817 0.767838 4.39551 0.857084 4.38858L3.86566 3.94287C3.9416 3.93445 4.01401 3.90629 4.07567 3.86117C4.13733 3.81605 4.18609 3.75556 4.21708 3.68572L5.57994 0.934295C5.61706 0.85416 5.67632 0.786314 5.75074 0.738767C5.82516 0.691219 5.91163 0.665955 5.99994 0.665955C6.08825 0.665955 6.17472 0.691219 6.24914 0.738767C6.32356 0.786314 6.38283 0.85416 6.41994 0.934295Z" fill="#FFDC25" stroke="#FFDC25" stroke-width="0.857143" stroke-linecap="round" stroke-linejoin="round"/>
</g>
<g clip-path="url(#clip1_192_382)">
<path d="M21.4199 0.934295L22.7828 3.68572C22.8138 3.75556 22.8626 3.81605 22.9242 3.86117C22.9859 3.90629 23.0583 3.93445 23.1342 3.94287L26.1428 4.38858C26.2299 4.39978 26.312 4.43553 26.3796 4.49166C26.4471 4.54779 26.4973 4.62198 26.5243 4.70556C26.5513 4.78915 26.5539 4.87868 26.5319 4.96371C26.5098 5.04873 26.4641 5.12573 26.3999 5.18572L24.2314 7.33715C24.176 7.38886 24.1345 7.45359 24.1105 7.52544C24.0866 7.5973 24.081 7.67401 24.0942 7.74858L24.6171 10.7743C24.6322 10.8612 24.6227 10.9507 24.5895 11.0325C24.5563 11.1142 24.5008 11.185 24.4294 11.2368C24.3579 11.2886 24.2734 11.3193 24.1853 11.3255C24.0973 11.3316 24.0093 11.3129 23.9314 11.2714L21.2228 9.84001C21.1534 9.80596 21.0772 9.78826 20.9999 9.78826C20.9227 9.78826 20.8464 9.80596 20.7771 9.84001L18.0685 11.2714C17.9906 11.3129 17.9026 11.3316 17.8146 11.3255C17.7265 11.3193 17.642 11.2886 17.5705 11.2368C17.4991 11.185 17.4436 11.1142 17.4104 11.0325C17.3772 10.9507 17.3677 10.8612 17.3828 10.7743L17.9057 7.71429C17.9189 7.63972 17.9133 7.56302 17.8893 7.49116C17.8654 7.4193 17.8239 7.35458 17.7685 7.30287L15.5742 5.18572C15.5093 5.12409 15.4637 5.04496 15.4428 4.95791C15.4219 4.87086 15.4268 4.77963 15.4567 4.69527C15.4866 4.6109 15.5404 4.53703 15.6115 4.4826C15.6825 4.42817 15.7678 4.39551 15.8571 4.38858L18.8657 3.94287C18.9416 3.93445 19.014 3.90629 19.0757 3.86117C19.1373 3.81605 19.1861 3.75556 19.2171 3.68572L20.5799 0.934295C20.6171 0.85416 20.6763 0.786314 20.7507 0.738767C20.8252 0.691219 20.9116 0.665955 20.9999 0.665955C21.0883 0.665955 21.1747 0.691219 21.2491 0.738767C21.3236 0.786314 21.3828 0.85416 21.4199 0.934295Z" fill="#FFDC25" stroke="#FFDC25" stroke-width="0.857143" stroke-linecap="round" stroke-linejoin="round"/>
</g>
<g clip-path="url(#clip2_192_382)">
<path d="M36.4199 0.934295L37.7828 3.68572C37.8138 3.75556 37.8626 3.81605 37.9242 3.86117C37.9859 3.90629 38.0583 3.93445 38.1342 3.94287L41.1428 4.38858C41.2299 4.39978 41.312 4.43553 41.3796 4.49166C41.4471 4.54779 41.4973 4.62198 41.5243 4.70556C41.5513 4.78915 41.5539 4.87868 41.5319 4.96371C41.5098 5.04873 41.4641 5.12573 41.3999 5.18572L39.2314 7.33715C39.176 7.38886 39.1345 7.45359 39.1105 7.52544C39.0866 7.5973 39.081 7.67401 39.0942 7.74858L39.6171 10.7743C39.6322 10.8612 39.6227 10.9507 39.5895 11.0325C39.5563 11.1142 39.5008 11.185 39.4294 11.2368C39.3579 11.2886 39.2734 11.3193 39.1853 11.3255C39.0973 11.3316 39.0093 11.3129 38.9314 11.2714L36.2228 9.84001C36.1534 9.80596 36.0772 9.78826 35.9999 9.78826C35.9227 9.78826 35.8464 9.80596 35.7771 9.84001L33.0685 11.2714C32.9906 11.3129 32.9026 11.3316 32.8146 11.3255C32.7265 11.3193 32.642 11.2886 32.5705 11.2368C32.4991 11.185 32.4436 11.1142 32.4104 11.0325C32.3772 10.9507 32.3677 10.8612 32.3828 10.7743L32.9057 7.71429C32.9189 7.63972 32.9133 7.56302 32.8893 7.49116C32.8654 7.4193 32.8239 7.35458 32.7685 7.30287L30.5742 5.18572C30.5093 5.12409 30.4637 5.04496 30.4428 4.95791C30.4219 4.87086 30.4268 4.77963 30.4567 4.69527C30.4866 4.6109 30.5404 4.53703 30.6115 4.4826C30.6825 4.42817 30.7678 4.39551 30.8571 4.38858L33.8657 3.94287C33.9416 3.93445 34.014 3.90629 34.0757 3.86117C34.1373 3.81605 34.1861 3.75556 34.2171 3.68572L35.5799 0.934295C35.6171 0.85416 35.6763 0.786314 35.7507 0.738767C35.8252 0.691219 35.9116 0.665955 35.9999 0.665955C36.0883 0.665955 36.1747 0.691219 36.2491 0.738767C36.3236 0.786314 36.3828 0.85416 36.4199 0.934295Z" fill="#FFDC25" stroke="#FFDC25" stroke-width="0.857143" stroke-linecap="round" stroke-linejoin="round"/>
</g>
<g clip-path="url(#clip3_192_382)">
<path d="M51.4199 0.934295L52.7828 3.68572C52.8138 3.75556 52.8626 3.81605 52.9242 3.86117C52.9859 3.90629 53.0583 3.93445 53.1342 3.94287L56.1428 4.38858C56.2299 4.39978 56.312 4.43553 56.3796 4.49166C56.4471 4.54779 56.4973 4.62198 56.5243 4.70556C56.5513 4.78915 56.5539 4.87868 56.5319 4.96371C56.5098 5.04873 56.4641 5.12573 56.3999 5.18572L54.2314 7.33715C54.176 7.38886 54.1345 7.45359 54.1105 7.52544C54.0866 7.5973 54.081 7.67401 54.0942 7.74858L54.6171 10.7743C54.6322 10.8612 54.6227 10.9507 54.5895 11.0325C54.5563 11.1142 54.5008 11.185 54.4294 11.2368C54.3579 11.2886 54.2734 11.3193 54.1853 11.3255C54.0973 11.3316 54.0093 11.3129 53.9314 11.2714L51.2228 9.84001C51.1534 9.80596 51.0772 9.78826 50.9999 9.78826C50.9227 9.78826 50.8464 9.80596 50.7771 9.84001L48.0685 11.2714C47.9906 11.3129 47.9026 11.3316 47.8146 11.3255C47.7265 11.3193 47.642 11.2886 47.5705 11.2368C47.4991 11.185 47.4436 11.1142 47.4104 11.0325C47.3772 10.9507 47.3677 10.8612 47.3828 10.7743L47.9057 7.71429C47.9189 7.63972 47.9133 7.56302 47.8893 7.49116C47.8654 7.4193 47.8239 7.35458 47.7685 7.30287L45.5742 5.18572C45.5093 5.12409 45.4637 5.04496 45.4428 4.95791C45.4219 4.87086 45.4268 4.77963 45.4567 4.69527C45.4866 4.6109 45.5404 4.53703 45.6115 4.4826C45.6825 4.42817 45.7678 4.39551 45.8571 4.38858L48.8657 3.94287C48.9416 3.93445 49.014 3.90629 49.0757 3.86117C49.1373 3.81605 49.1861 3.75556 49.2171 3.68572L50.5799 0.934295C50.6171 0.85416 50.6763 0.786314 50.7507 0.738767C50.8252 0.691219 50.9116 0.665955 50.9999 0.665955C51.0883 0.665955 51.1747 0.691219 51.2491 0.738767C51.3236 0.786314 51.3828 0.85416 51.4199 0.934295Z" fill="#FFDC25" stroke="#FFDC25" stroke-width="0.857143" stroke-linecap="round" stroke-linejoin="round"/>
</g>
<g clip-path="url(#clip4_192_382)">
<path d="M66.4199 0.934295L67.7828 3.68572C67.8138 3.75556 67.8626 3.81605 67.9242 3.86117C67.9859 3.90629 68.0583 3.93445 68.1342 3.94287L71.1428 4.38858C71.2299 4.39978 71.312 4.43553 71.3796 4.49166C71.4471 4.54779 71.4973 4.62198 71.5243 4.70556C71.5513 4.78915 71.5539 4.87868 71.5319 4.96371C71.5098 5.04873 71.4641 5.12573 71.3999 5.18572L69.2314 7.33715C69.176 7.38886 69.1345 7.45359 69.1105 7.52544C69.0866 7.5973 69.081 7.67401 69.0942 7.74858L69.6171 10.7743C69.6322 10.8612 69.6227 10.9507 69.5895 11.0325C69.5563 11.1142 69.5008 11.185 69.4294 11.2368C69.3579 11.2886 69.2734 11.3193 69.1853 11.3255C69.0973 11.3316 69.0093 11.3129 68.9314 11.2714L66.2228 9.84001C66.1534 9.80596 66.0772 9.78826 65.9999 9.78826C65.9227 9.78826 65.8464 9.80596 65.7771 9.84001L63.0685 11.2714C62.9906 11.3129 62.9026 11.3316 62.8146 11.3255C62.7265 11.3193 62.642 11.2886 62.5705 11.2368C62.4991 11.185 62.4436 11.1142 62.4104 11.0325C62.3772 10.9507 62.3677 10.8612 62.3828 10.7743L62.9057 7.71429C62.9189 7.63972 62.9133 7.56302 62.8893 7.49116C62.8654 7.4193 62.8239 7.35458 62.7685 7.30287L60.5742 5.18572C60.5093 5.12409 60.4637 5.04496 60.4428 4.95791C60.4219 4.87086 60.4268 4.77963 60.4567 4.69527C60.4866 4.6109 60.5404 4.53703 60.6115 4.4826C60.6825 4.42817 60.7678 4.39551 60.8571 4.38858L63.8657 3.94287C63.9416 3.93445 64.014 3.90629 64.0757 3.86117C64.1373 3.81605 64.1861 3.75556 64.2171 3.68572L65.5799 0.934295C65.6171 0.85416 65.6763 0.786314 65.7507 0.738767C65.8252 0.691219 65.9116 0.665955 65.9999 0.665955C66.0883 0.665955 66.1747 0.691219 66.2491 0.738767C66.3236 0.786314 66.3828 0.85416 66.4199 0.934295Z" stroke="#FFDC25" stroke-width="0.857143" stroke-linecap="round" stroke-linejoin="round"/>
</g>
<defs>
<clipPath id="clip0_192_382">
<rect width="12" height="12" fill="white"/>
</clipPath>
<clipPath id="clip1_192_382">
<rect width="12" height="12" fill="white" transform="translate(15)"/>
</clipPath>
<clipPath id="clip2_192_382">
<rect width="12" height="12" fill="white" transform="translate(30)"/>
</clipPath>
<clipPath id="clip3_192_382">
<rect width="12" height="12" fill="white" transform="translate(45)"/>
</clipPath>
<clipPath id="clip4_192_382">
<rect width="12" height="12" fill="white" transform="translate(60)"/>
</clipPath>
</defs>
</svg>
