<svg width="72" height="12" viewBox="0 0 72 12" fill="none" xmlns="http://www.w3.org/2000/svg">
<g clip-path="url(#clip0_192_404)">
<path d="M6.41994 0.934287L7.7828 3.68572C7.8138 3.75555 7.86255 3.81604 7.92422 3.86116C7.98588 3.90628 8.05829 3.93445 8.13423 3.94286L11.1428 4.38857C11.2299 4.39977 11.312 4.43552 11.3796 4.49165C11.4471 4.54778 11.4973 4.62197 11.5243 4.70556C11.5513 4.78914 11.5539 4.87868 11.5319 4.9637C11.5098 5.04872 11.4641 5.12573 11.3999 5.18572L9.23137 7.33714C9.17602 7.38885 9.13449 7.45358 9.11053 7.52544C9.08658 7.59729 9.08098 7.674 9.09423 7.74857L9.61708 10.7743C9.63222 10.8612 9.62265 10.9507 9.58947 11.0324C9.55628 11.1142 9.5008 11.185 9.42936 11.2368C9.35791 11.2886 9.27336 11.3193 9.18532 11.3255C9.09728 11.3316 9.00929 11.3129 8.93137 11.2714L6.2228 9.84C6.15344 9.80595 6.07721 9.78825 5.99994 9.78825C5.92268 9.78825 5.84644 9.80595 5.77708 9.84L3.06851 11.2714C2.99059 11.3129 2.9026 11.3316 2.81456 11.3255C2.72653 11.3193 2.64197 11.2886 2.57053 11.2368C2.49908 11.185 2.4436 11.1142 2.41042 11.0324C2.37723 10.9507 2.36766 10.8612 2.3828 10.7743L2.90566 7.71429C2.91891 7.63971 2.9133 7.56301 2.88935 7.49115C2.8654 7.4193 2.82386 7.35457 2.76851 7.30286L0.574227 5.18572C0.509309 5.12408 0.463655 5.04495 0.442796 4.9579C0.421937 4.87085 0.426767 4.77962 0.456702 4.69526C0.486636 4.6109 0.54039 4.53703 0.611453 4.48259C0.682516 4.42816 0.767838 4.3955 0.857084 4.38857L3.86566 3.94286C3.9416 3.93445 4.01401 3.90628 4.07567 3.86116C4.13733 3.81604 4.18609 3.75555 4.21708 3.68572L5.57994 0.934287C5.61706 0.854152 5.67632 0.786307 5.75074 0.738759C5.82516 0.691212 5.91163 0.665947 5.99994 0.665947C6.08825 0.665947 6.17472 0.691212 6.24914 0.738759C6.32356 0.786307 6.38283 0.854152 6.41994 0.934287Z" fill="#FFDC25" stroke="#FFDC25" stroke-width="0.857143" stroke-linecap="round" stroke-linejoin="round"/>
</g>
<g clip-path="url(#clip1_192_404)">
<path d="M21.4199 0.934287L22.7828 3.68572C22.8138 3.75555 22.8626 3.81604 22.9242 3.86116C22.9859 3.90628 23.0583 3.93445 23.1342 3.94286L26.1428 4.38857C26.2299 4.39977 26.312 4.43552 26.3796 4.49165C26.4471 4.54778 26.4973 4.62197 26.5243 4.70556C26.5513 4.78914 26.5539 4.87868 26.5319 4.9637C26.5098 5.04872 26.4641 5.12573 26.3999 5.18572L24.2314 7.33714C24.176 7.38885 24.1345 7.45358 24.1105 7.52544C24.0866 7.59729 24.081 7.674 24.0942 7.74857L24.6171 10.7743C24.6322 10.8612 24.6227 10.9507 24.5895 11.0324C24.5563 11.1142 24.5008 11.185 24.4294 11.2368C24.3579 11.2886 24.2734 11.3193 24.1853 11.3255C24.0973 11.3316 24.0093 11.3129 23.9314 11.2714L21.2228 9.84C21.1534 9.80595 21.0772 9.78825 20.9999 9.78825C20.9227 9.78825 20.8464 9.80595 20.7771 9.84L18.0685 11.2714C17.9906 11.3129 17.9026 11.3316 17.8146 11.3255C17.7265 11.3193 17.642 11.2886 17.5705 11.2368C17.4991 11.185 17.4436 11.1142 17.4104 11.0324C17.3772 10.9507 17.3677 10.8612 17.3828 10.7743L17.9057 7.71429C17.9189 7.63971 17.9133 7.56301 17.8893 7.49115C17.8654 7.4193 17.8239 7.35457 17.7685 7.30286L15.5742 5.18572C15.5093 5.12408 15.4637 5.04495 15.4428 4.9579C15.4219 4.87085 15.4268 4.77962 15.4567 4.69526C15.4866 4.6109 15.5404 4.53703 15.6115 4.48259C15.6825 4.42816 15.7678 4.3955 15.8571 4.38857L18.8657 3.94286C18.9416 3.93445 19.014 3.90628 19.0757 3.86116C19.1373 3.81604 19.1861 3.75555 19.2171 3.68572L20.5799 0.934287C20.6171 0.854152 20.6763 0.786307 20.7507 0.738759C20.8252 0.691212 20.9116 0.665947 20.9999 0.665947C21.0883 0.665947 21.1747 0.691212 21.2491 0.738759C21.3236 0.786307 21.3828 0.854152 21.4199 0.934287Z" fill="#FFDC25" stroke="#FFDC25" stroke-width="0.857143" stroke-linecap="round" stroke-linejoin="round"/>
</g>
<g clip-path="url(#clip2_192_404)">
<path d="M36.4199 0.934287L37.7828 3.68572C37.8138 3.75555 37.8626 3.81604 37.9242 3.86116C37.9859 3.90628 38.0583 3.93445 38.1342 3.94286L41.1428 4.38857C41.2299 4.39977 41.312 4.43552 41.3796 4.49165C41.4471 4.54778 41.4973 4.62197 41.5243 4.70556C41.5513 4.78914 41.5539 4.87868 41.5319 4.9637C41.5098 5.04872 41.4641 5.12573 41.3999 5.18572L39.2314 7.33714C39.176 7.38885 39.1345 7.45358 39.1105 7.52544C39.0866 7.59729 39.081 7.674 39.0942 7.74857L39.6171 10.7743C39.6322 10.8612 39.6227 10.9507 39.5895 11.0324C39.5563 11.1142 39.5008 11.185 39.4294 11.2368C39.3579 11.2886 39.2734 11.3193 39.1853 11.3255C39.0973 11.3316 39.0093 11.3129 38.9314 11.2714L36.2228 9.84C36.1534 9.80595 36.0772 9.78825 35.9999 9.78825C35.9227 9.78825 35.8464 9.80595 35.7771 9.84L33.0685 11.2714C32.9906 11.3129 32.9026 11.3316 32.8146 11.3255C32.7265 11.3193 32.642 11.2886 32.5705 11.2368C32.4991 11.185 32.4436 11.1142 32.4104 11.0324C32.3772 10.9507 32.3677 10.8612 32.3828 10.7743L32.9057 7.71429C32.9189 7.63971 32.9133 7.56301 32.8893 7.49115C32.8654 7.4193 32.8239 7.35457 32.7685 7.30286L30.5742 5.18572C30.5093 5.12408 30.4637 5.04495 30.4428 4.9579C30.4219 4.87085 30.4268 4.77962 30.4567 4.69526C30.4866 4.6109 30.5404 4.53703 30.6115 4.48259C30.6825 4.42816 30.7678 4.3955 30.8571 4.38857L33.8657 3.94286C33.9416 3.93445 34.014 3.90628 34.0757 3.86116C34.1373 3.81604 34.1861 3.75555 34.2171 3.68572L35.5799 0.934287C35.6171 0.854152 35.6763 0.786307 35.7507 0.738759C35.8252 0.691212 35.9116 0.665947 35.9999 0.665947C36.0883 0.665947 36.1747 0.691212 36.2491 0.738759C36.3236 0.786307 36.3828 0.854152 36.4199 0.934287Z" fill="#FFDC25" stroke="#FFDC25" stroke-width="0.857143" stroke-linecap="round" stroke-linejoin="round"/>
</g>
<g clip-path="url(#clip3_192_404)">
<path d="M51.4199 0.934287L52.7828 3.68572C52.8138 3.75555 52.8626 3.81604 52.9242 3.86116C52.9859 3.90628 53.0583 3.93445 53.1342 3.94286L56.1428 4.38857C56.2299 4.39977 56.312 4.43552 56.3796 4.49165C56.4471 4.54778 56.4973 4.62197 56.5243 4.70556C56.5513 4.78914 56.5539 4.87868 56.5319 4.9637C56.5098 5.04872 56.4641 5.12573 56.3999 5.18572L54.2314 7.33714C54.176 7.38885 54.1345 7.45358 54.1105 7.52544C54.0866 7.59729 54.081 7.674 54.0942 7.74857L54.6171 10.7743C54.6322 10.8612 54.6227 10.9507 54.5895 11.0324C54.5563 11.1142 54.5008 11.185 54.4294 11.2368C54.3579 11.2886 54.2734 11.3193 54.1853 11.3255C54.0973 11.3316 54.0093 11.3129 53.9314 11.2714L51.2228 9.84C51.1534 9.80595 51.0772 9.78825 50.9999 9.78825C50.9227 9.78825 50.8464 9.80595 50.7771 9.84L48.0685 11.2714C47.9906 11.3129 47.9026 11.3316 47.8146 11.3255C47.7265 11.3193 47.642 11.2886 47.5705 11.2368C47.4991 11.185 47.4436 11.1142 47.4104 11.0324C47.3772 10.9507 47.3677 10.8612 47.3828 10.7743L47.9057 7.71429C47.9189 7.63971 47.9133 7.56301 47.8893 7.49115C47.8654 7.4193 47.8239 7.35457 47.7685 7.30286L45.5742 5.18572C45.5093 5.12408 45.4637 5.04495 45.4428 4.9579C45.4219 4.87085 45.4268 4.77962 45.4567 4.69526C45.4866 4.6109 45.5404 4.53703 45.6115 4.48259C45.6825 4.42816 45.7678 4.3955 45.8571 4.38857L48.8657 3.94286C48.9416 3.93445 49.014 3.90628 49.0757 3.86116C49.1373 3.81604 49.1861 3.75555 49.2171 3.68572L50.5799 0.934287C50.6171 0.854152 50.6763 0.786307 50.7507 0.738759C50.8252 0.691212 50.9116 0.665947 50.9999 0.665947C51.0883 0.665947 51.1747 0.691212 51.2491 0.738759C51.3236 0.786307 51.3828 0.854152 51.4199 0.934287Z" fill="#FFDC25" stroke="#FFDC25" stroke-width="0.857143" stroke-linecap="round" stroke-linejoin="round"/>
</g>
<g clip-path="url(#clip4_192_404)">
<path d="M66.4199 0.934287L67.7828 3.68572C67.8138 3.75555 67.8626 3.81604 67.9242 3.86116C67.9859 3.90628 68.0583 3.93445 68.1342 3.94286L71.1428 4.38857C71.2299 4.39977 71.312 4.43552 71.3796 4.49165C71.4471 4.54778 71.4973 4.62197 71.5243 4.70556C71.5513 4.78914 71.5539 4.87868 71.5319 4.9637C71.5098 5.04872 71.4641 5.12573 71.3999 5.18572L69.2314 7.33715C69.176 7.38885 69.1345 7.45358 69.1105 7.52544C69.0866 7.59729 69.081 7.674 69.0942 7.74857L69.6171 10.7743C69.6322 10.8612 69.6227 10.9507 69.5895 11.0324C69.5563 11.1142 69.5008 11.185 69.4294 11.2368C69.3579 11.2886 69.2734 11.3193 69.1853 11.3255C69.0973 11.3316 69.0093 11.3129 68.9314 11.2714L66.2228 9.84C66.1534 9.80595 66.0772 9.78825 65.9999 9.78825C65.9227 9.78825 65.8464 9.80595 65.7771 9.84L63.0685 11.2714C62.9906 11.3129 62.9026 11.3316 62.8146 11.3255C62.7265 11.3193 62.642 11.2886 62.5705 11.2368C62.4991 11.185 62.4436 11.1142 62.4104 11.0324C62.3772 10.9507 62.3677 10.8612 62.3828 10.7743L62.9057 7.71429C62.9189 7.63971 62.9133 7.56301 62.8893 7.49115C62.8654 7.4193 62.8239 7.35457 62.7685 7.30286L60.5742 5.18572C60.5093 5.12408 60.4637 5.04495 60.4428 4.9579C60.4219 4.87085 60.4268 4.77962 60.4567 4.69526C60.4866 4.6109 60.5404 4.53703 60.6115 4.48259C60.6825 4.42816 60.7678 4.3955 60.8571 4.38857L63.8657 3.94286C63.9416 3.93445 64.014 3.90628 64.0757 3.86116C64.1373 3.81604 64.1861 3.75555 64.2171 3.68572L65.5799 0.934287C65.6171 0.854152 65.6763 0.786307 65.7507 0.738759C65.8252 0.691212 65.9116 0.665947 65.9999 0.665947C66.0883 0.665947 66.1747 0.691212 66.2491 0.738759C66.3236 0.786307 66.3828 0.854152 66.4199 0.934287Z" stroke="#FFDC25" stroke-width="0.857143" stroke-linecap="round" stroke-linejoin="round"/>
</g>
<defs>
<clipPath id="clip0_192_404">
<rect width="12" height="12" fill="white"/>
</clipPath>
<clipPath id="clip1_192_404">
<rect width="12" height="12" fill="white" transform="translate(15)"/>
</clipPath>
<clipPath id="clip2_192_404">
<rect width="12" height="12" fill="white" transform="translate(30)"/>
</clipPath>
<clipPath id="clip3_192_404">
<rect width="12" height="12" fill="white" transform="translate(45)"/>
</clipPath>
<clipPath id="clip4_192_404">
<rect width="12" height="12" fill="white" transform="translate(60)"/>
</clipPath>
</defs>
</svg>
