<svg width="37" height="37" viewBox="0 0 37 37" fill="none" xmlns="http://www.w3.org/2000/svg">
<path d="M20.68 18.8302C20.7585 18.7518 20.8026 18.6454 20.8027 18.5345V18.3225C20.8014 18.2119 20.7575 18.106 20.68 18.0269L17.8128 15.1653C17.7604 15.1125 17.6891 15.0828 17.6148 15.0828C17.5404 15.0828 17.4691 15.1125 17.4167 15.1653L17.0207 15.5613C16.9682 15.6127 16.9387 15.6831 16.9387 15.7566C16.9387 15.83 16.9682 15.9004 17.0207 15.9518L19.503 18.4285L17.0207 20.9053C16.9679 20.9576 16.9382 21.0289 16.9382 21.1033C16.9382 21.1777 16.9679 21.2489 17.0207 21.3013L17.4167 21.6918C17.4691 21.7446 17.5404 21.7743 17.6148 21.7743C17.6891 21.7743 17.7604 21.7446 17.8128 21.6918L20.68 18.8302Z" fill="#5538C8"/>
<rect x="1.0001" y="0.857159" width="35.1429" height="35.1429" rx="3.06803" stroke="#BCBCBC" stroke-width="0.557823"/>
</svg>
