<svg width="37" height="37" viewBox="0 0 37 37" fill="none" xmlns="http://www.w3.org/2000/svg">
<path d="M16.32 18.8302C16.2415 18.7518 16.1974 18.6454 16.1973 18.5345V18.3225C16.1986 18.2119 16.2425 18.106 16.32 18.0269L19.1872 15.1653C19.2396 15.1125 19.3109 15.0828 19.3852 15.0828C19.4596 15.0828 19.5309 15.1125 19.5833 15.1653L19.9793 15.5613C20.0318 15.6127 20.0613 15.6831 20.0613 15.7566C20.0613 15.83 20.0318 15.9004 19.9793 15.9518L17.497 18.4285L19.9793 20.9053C20.0321 20.9576 20.0618 21.0289 20.0618 21.1033C20.0618 21.1777 20.0321 21.2489 19.9793 21.3013L19.5833 21.6918C19.5309 21.7446 19.4596 21.7743 19.3852 21.7743C19.3109 21.7743 19.2396 21.7446 19.1872 21.6918L16.32 18.8302Z" fill="#BCBCBC"/>
<rect x="0.857037" y="0.857159" width="35.1429" height="35.1429" rx="3.06803" stroke="#BCBCBC" stroke-width="0.557823"/>
</svg>
