<svg width="86" height="43" viewBox="0 0 86 43" fill="none" xmlns="http://www.w3.org/2000/svg">
<path opacity="0.1" fill-rule="evenodd" clip-rule="evenodd" d="M84.9998 42.9996L84.9935 42.9997L84.9746 43L84.9432 43.0008L84.8991 43.0023L84.8426 43.0049L84.7735 43.0087L84.692 43.014L84.5981 43.0211L84.4919 43.0301L84.3735 43.0414L84.2429 43.0552L84.1002 43.0717L83.9456 43.0911L83.7791 43.1138L83.6008 43.1398L83.4109 43.1695L83.2096 43.203L82.9969 43.2406L82.7729 43.2826L82.538 43.329L82.2921 43.3801L82.0355 43.4361L81.7684 43.4973L81.4909 43.5637L81.2033 43.6357L80.9057 43.7132L80.5984 43.7967L80.2814 43.8861L79.9552 43.9817L79.6198 44.0836L79.2756 44.192L78.9227 44.307L78.5614 44.4287L78.192 44.5574L77.8146 44.693L77.4295 44.8357L77.0371 44.9857L76.6375 45.143L76.2311 45.3077L75.818 45.4799L75.3986 45.6597L74.9732 45.8471L74.542 46.0423L74.1054 46.2452L73.6635 46.456L73.2167 46.6745L72.7653 46.901L72.3096 47.1354L71.8499 47.3777L71.3864 47.6278L70.9195 47.886L70.4495 48.152L69.9766 48.4259L69.5012 48.7076L69.0236 48.9972L68.544 49.2946L68.0628 49.5996L67.5802 49.9123L67.0966 50.2327L66.6123 50.5605L66.1275 50.8957L65.6425 51.2383L65.1577 51.5881L64.6733 51.945L64.1896 52.3089L63.7069 52.6797L63.2254 53.0572L62.7455 53.4414L62.2675 53.8319L61.7915 54.2288L61.3179 54.6318L60.8469 55.0407L60.3788 55.4555L59.9138 55.8758L59.4522 56.3015L58.9943 56.7324L58.5402 57.1683L58.0902 57.6091L57.6446 58.0544L57.2035 58.504L56.7672 58.9578L56.3358 59.4154L55.9097 59.8767L55.4889 60.3414L55.0737 60.8093L54.6643 61.2801L54.2609 61.7535L53.8635 62.2293L53.4724 62.7072L53.0878 63.187L52.7097 63.6683L52.3384 64.1509L51.9739 64.6345L51.6165 65.1189L51.2661 65.6037L50.9229 66.0887L50.5871 66.5735L50.2587 67.0579L49.9378 67.5416L49.6244 68.0242L49.3188 68.5056L49.0208 68.9853L48.7306 69.4631L48.4482 69.9387L48.1737 70.4118L47.9071 70.882L47.6483 71.3492L47.3975 71.8129L47.1546 72.273L46.9196 72.729L46.6925 73.1807L46.4733 73.6279L46.2619 74.0702L46.0584 74.5073L45.8626 74.9389L45.6745 75.3648L45.4941 75.7847L45.3213 76.1982L45.156 76.6052L44.9981 77.0053L44.8476 77.3984L44.7043 77.784L44.5681 78.162L44.4389 78.5321L44.3166 78.8941L44.2011 79.2476L44.0922 79.5926L43.9898 79.9286L43.8937 80.2556L43.8038 80.5733L43.7199 80.8814L43.6418 81.1798L43.5695 81.4682L43.5026 81.7465L43.441 82.0144L43.3846 82.2719L43.3331 82.5186L43.2863 82.7544L43.244 82.9792L43.2061 83.1929L43.1722 83.3951L43.1422 83.5859L43.1159 83.7651L43.093 83.9326L43.0733 84.0882L43.0566 84.2318L43.0426 84.3633L43.0311 84.4828L43.0219 84.5899L43.0147 84.6848L43.0093 84.7673L43.0053 84.8373L43.0027 84.8949L43.0011 84.9399L43.0002 84.9724L42.9999 84.9923L42.9998 84.9996L42.9998 84.9943L42.9995 84.9764L42.9988 84.9459L42.9973 84.9029L42.9948 84.8473L42.9911 84.7793L42.986 84.6988L42.979 84.6059L42.9701 84.5007L42.959 84.3832L42.9455 84.2535L42.9292 84.1118L42.91 83.9581L42.8876 83.7926L42.8619 83.6152L42.8325 83.4263L42.7993 83.2258L42.762 83.014L42.7204 82.791L42.6744 82.5569L42.6236 82.3119L42.568 82.0562L42.5072 81.7899L42.4412 81.5132L42.3698 81.2264L42.2926 80.9296L42.2097 80.623L42.1207 80.3068L42.0256 79.9813L41.9242 79.6467L41.8164 79.3031L41.7019 78.9509L41.5807 78.5903L41.4526 78.2215L41.3176 77.8447L41.1754 77.4603L41.026 77.0684L40.8693 76.6694L40.7052 76.2635L40.5336 75.8509L40.3544 75.4321L40.1675 75.0071L39.973 74.5764L39.7707 74.1401L39.5606 73.6987L39.3426 73.2523L39.1168 72.8012L38.8831 72.3459L38.6414 71.8864L38.3918 71.4233L38.1344 70.9566L37.869 70.4868L37.5957 70.0142L37.3146 69.539L37.0256 69.0615L36.7289 68.5821L36.4244 68.101L36.1123 67.6185L35.7926 67.135L35.4654 66.6507L35.1307 66.1659L34.7887 65.6809L34.4395 65.1961L34.0831 64.7116L33.7198 64.2279L33.3495 63.7451L32.9725 63.2635L32.5889 62.7835L32.1989 62.3053L31.8025 61.8291L31.4 61.3553L30.9915 60.8841L30.5773 60.4157L30.1574 59.9505L29.7321 59.4886L29.3016 59.0304L28.866 58.576L28.4257 58.1257L27.9808 57.6797L27.5314 57.2382L27.078 56.8015L26.6206 56.3698L26.1596 55.9432L25.6952 55.522L25.2276 55.1064L24.757 54.6965L24.2838 54.2926L23.8082 53.8947L23.3304 53.5031L22.8508 53.118L22.3696 52.7394L21.8871 52.3675L21.4035 52.0025L20.9192 51.6445L20.4344 51.2935L19.9494 50.9498L19.4646 50.6134L18.9801 50.2844L18.4964 49.9629L18.0137 49.6489L17.5322 49.3426L17.0523 49.044L16.5744 48.7532L16.0986 48.4702L15.6253 48.1951L15.1548 47.9278L14.6874 47.6684L14.2234 47.417L13.763 47.1734L13.3066 46.9378L12.8545 46.7101L12.407 46.4902L11.9644 46.2783L11.5268 46.0741L11.0948 45.8777L10.6684 45.689L10.248 45.508L9.83396 45.3346L9.42644 45.1687L9.02575 45.0103L8.63216 44.8591L8.24592 44.7152L7.86731 44.5785L7.49657 44.4487L7.13395 44.3259L6.77971 44.2098L6.43407 44.1004L6.09729 43.9975L5.76957 43.9009L5.45116 43.8105L5.14227 43.7261L4.8431 43.6476L4.55387 43.5748L4.27477 43.5075L4.00599 43.4455L3.74773 43.3887L3.50015 43.3368L3.26343 43.2896L3.03774 43.247L2.82323 43.2087L2.62004 43.1746L2.42832 43.1443L2.24821 43.1177L2.07982 43.0945L1.92328 43.0746L1.7787 43.0576L1.64616 43.0435L1.52578 43.0318L1.41763 43.0224L1.32178 43.015L1.23831 43.0094L1.16727 43.0054L1.10872 43.0027L1.06268 43.001L1.02921 43.0001L1.00831 42.9997L1 42.9996L1.00429 42.9996L1.02118 42.9994L1.05066 42.9987L1.09269 42.9973L1.14726 42.9949L1.21433 42.9913L1.29385 42.9862L1.38576 42.9795L1.49 42.9707L1.6065 42.9598L1.73517 42.9464L1.87592 42.9304L2.02867 42.9114L2.19329 42.8893L2.36969 42.8639L2.55772 42.8348L2.75727 42.8019L2.96819 42.7649L3.19034 42.7237L3.42356 42.678L3.6677 42.6276L3.92258 42.5724L4.18803 42.5121L4.46386 42.4465L4.74988 42.3755L5.04591 42.2988L5.35173 42.2163L5.66713 42.1278L5.9919 42.0332L6.32582 41.9323L6.66867 41.825L7.02019 41.7111L7.38017 41.5904L7.74835 41.4629L8.12448 41.3284L8.50832 41.1868L8.8996 41.038L9.29806 40.8818L9.70343 40.7183L10.1154 40.5473L10.5338 40.3687L10.9583 40.1825L11.3886 39.9886L11.8244 39.7869L12.2655 39.5774L12.7115 39.3601L13.1622 39.1349L13.6172 38.9018L14.0763 38.6607L14.5392 38.4118L15.0056 38.155L15.4751 37.8902L15.9476 37.6176L16.4226 37.337L16.8999 37.0487L17.3792 36.7526L17.8601 36.4488L18.3425 36.1373L18.826 35.8181L19.3102 35.4915L19.795 35.1574L20.2799 34.816L20.7648 34.4674L21.2493 34.1116L21.7331 33.7488L22.216 33.3791L22.6977 33.0026L23.1778 32.6195L23.6562 32.23L24.1325 31.8341L24.6065 31.4321L25.078 31.0241L25.5466 30.6103L26.012 30.1908L26.4742 29.7659L26.9327 29.3358L27.3874 28.9007L27.8381 28.4607L28.2844 28.0161L28.7263 27.5672L29.1634 27.1141L29.5955 26.657L30.0225 26.1963L30.4441 25.7321L30.8602 25.2647L31.2705 24.7944L31.675 24.3214L32.0733 23.8459L32.4654 23.3683L32.8511 22.8889L33.2302 22.4078L33.6026 21.9253L33.9682 21.4418L34.3268 20.9576L34.6783 20.4728L35.0226 19.9878L35.3596 19.503L35.6892 19.0185L36.0113 18.5347L36.3258 18.0519L36.6327 17.5703L36.9319 17.0903L37.2234 16.6122L37.507 16.1362L37.7828 15.6627L38.0507 15.192L38.3107 14.7243L38.5628 14.26L38.8069 13.7993L39.0432 13.3426L39.2716 12.8902L39.492 12.4423L39.7046 11.9992L39.9094 11.5613L40.1064 11.1288L40.2957 10.7019L40.4773 10.2811L40.6513 9.8665L40.8178 9.45845L40.9769 9.0572L41.1286 8.66303L41.2731 8.2762L41.4104 7.89697L41.5407 7.52559L41.664 7.16232L41.7806 6.8074L41.8906 6.46108L41.994 6.12358L42.0911 5.79513L42.182 5.47597L42.2668 5.16631L42.3458 4.86636L42.4191 4.57633L42.4868 4.29642L42.5492 4.02681L42.6064 3.76771L42.6587 3.51927L42.7062 3.28168L42.7492 3.0551L42.7878 2.83969L42.8223 2.6356L42.8529 2.44297L42.8798 2.26192L42.9032 2.0926L42.9234 1.93511L42.9406 1.78957L42.955 1.65607L42.9669 1.53472L42.9764 1.42559L42.984 1.32876L42.9897 1.2443L42.9938 1.17227L42.9966 1.11272L42.9984 1.06569L42.9994 1.03121L42.9998 1.00931L42.9998 1L42.9999 1.00329L43.0001 1.01918L43.0007 1.04765L43.0021 1.08869L43.0044 1.14226L43.0079 1.20833L43.0128 1.28686L43.0194 1.37779L43.028 1.48105L43.0387 1.59657L43.0519 1.72428L43.0677 1.86408L43.0864 2.01587L43.1083 2.17955L43.1335 2.35501L43.1623 2.54212L43.1948 2.74076L43.2315 2.95078L43.2723 3.17204L43.3177 3.40439L43.3677 3.64766L43.4225 3.90169L43.4824 4.1663L43.5476 4.44132L43.6182 4.72654L43.6944 5.02177L43.7764 5.32682L43.8644 5.64147L43.9585 5.9655L44.0589 6.2987L44.1657 6.64084L44.2791 6.99169L44.3992 7.351L44.5262 7.71853L44.6601 8.09404L44.8012 8.47727L44.9494 8.86797L45.1049 9.26587L45.2679 9.6707L45.4383 10.0822L45.6163 10.5001L45.8019 10.9241L45.9952 11.3539L46.1962 11.7893L46.4051 12.23L46.6218 12.6756L46.8464 13.1259L47.0789 13.5806L47.3193 14.0394L47.5676 14.502L47.8238 14.9681L48.0879 15.4374L48.3599 15.9096L48.6398 16.3845L48.9275 16.8616L49.223 17.3407L49.5262 17.8216L49.8371 18.3039L50.1556 18.7872L50.4817 19.2714L50.8152 19.7561L51.156 20.2411L51.5041 20.726L51.8593 21.2105L52.2216 21.6944L52.5907 22.1774L52.9667 22.6592L53.3492 23.1395L53.7383 23.618L54.1336 24.0945L54.5352 24.5687L54.9427 25.0403L55.3561 25.5092L55.7751 25.9749L56.1995 26.4373L56.6292 26.8962L57.064 27.3512L57.5036 27.8022L57.9478 28.2489L58.3964 28.6911L58.8492 29.1285L59.3059 29.5611L59.7664 29.9885L60.2303 30.4105L60.6974 30.8271L61.1675 31.2379L61.6404 31.6428L62.1156 32.0416L62.593 32.4342L63.0724 32.8204L63.5534 33.2L64.0357 33.573L64.5191 33.9391L65.0033 34.2983L65.4881 34.6503L65.973 34.9952L66.4579 35.3328L66.9424 35.663L67.4263 35.9857L67.9092 36.3009L68.3909 36.6084L68.871 36.9082L69.3493 37.2003L69.8255 37.4845L70.2992 37.7609L70.7701 38.0294L71.2381 38.2901L71.7027 38.5428L72.1636 38.7876L72.6206 39.0245L73.0734 39.2535L73.5217 39.4745L73.9652 39.6878L74.4035 39.8932L74.8365 40.0908L75.2638 40.2807L75.6851 40.4629L76.1002 40.6376L76.5088 40.8046L76.9106 40.9643L77.3053 41.1166L77.6927 41.2616L78.0726 41.3995L78.4446 41.5303L78.8085 41.6543L79.1641 41.7714L79.5111 41.8819L79.8494 41.9858L80.1785 42.0834L80.4984 42.1748L80.8089 42.2601L81.1096 42.3395L81.4004 42.4132L81.6811 42.4814L81.9516 42.5442L82.2115 42.6019L82.4608 42.6545L82.6993 42.7024L82.9267 42.7458L83.143 42.7847L83.348 42.8195L83.5416 42.8504L83.7236 42.8776L83.8938 42.9013L84.0523 42.9217L84.1988 42.9391L84.3332 42.9537L84.4555 42.9658L84.5657 42.9755L84.6635 42.9832L84.7489 42.9891L84.8219 42.9933L84.8825 42.9963L84.9305 42.9981L84.966 42.9991L84.9889 42.9995L84.9992 42.9996L84.9998 42.9996Z" fill="#D1FFEC" stroke="#D1FFEC"/>
</svg>
